<svg xmlns="http://www.w3.org/2000/svg" xmlns:xlink="http://www.w3.org/1999/xlink" version="1.1" x="0px" y="0px" viewBox="0 0 100 125" enable-background="new 0 0 100 100" xml:space="preserve"><g><polygon points="17,39.811 20.311,46.519 27.713,47.595 22.357,52.816 23.621,60.189 17,56.708 10.379,60.189 11.643,52.816    6.287,47.595 13.689,46.519  "/><polygon points="50,39.811 53.311,46.519 60.713,47.595 55.357,52.816 56.621,60.189 50,56.708 43.379,60.189 44.643,52.816    39.287,47.595 46.689,46.519  "/><polygon points="83,39.811 86.311,46.519 93.713,47.595 88.357,52.816 89.621,60.189 83,56.708 76.379,60.189 77.643,52.816    72.287,47.595 79.689,46.519  "/></g><text x="0" y="115" fill="#000000" font-size="5px" font-weight="bold" font-family="'Helvetica Neue', Helvetica, Arial-Unicode, Arial, Sans-serif">Created by Lance B</text><text x="0" y="120" fill="#000000" font-size="5px" font-weight="bold" font-family="'Helvetica Neue', Helvetica, Arial-Unicode, Arial, Sans-serif">from the Noun Project</text></svg>