<svg xmlns="http://www.w3.org/2000/svg" xmlns:xlink="http://www.w3.org/1999/xlink" version="1.1" x="0px" y="0px" viewBox="0 0 100 125" enable-background="new 0 0 100 100" xml:space="preserve"><polygon points="15.5,44.364 17.331,48.074 21.426,48.669 18.463,51.558 19.163,55.636 15.5,53.711 11.837,55.636 12.537,51.558   9.574,48.669 13.669,48.074 "/><polygon points="61.5,44.364 63.331,48.074 67.426,48.669 64.463,51.558 65.163,55.636 61.5,53.711 57.837,55.636 58.537,51.558   55.574,48.669 59.669,48.074 "/><polygon points="38.5,44.364 40.331,48.074 44.426,48.669 41.463,51.558 42.163,55.636 38.5,53.711 34.837,55.636 35.537,51.558   32.574,48.669 36.669,48.074 "/><polygon points="84.5,44.364 86.331,48.074 90.426,48.669 87.463,51.558 88.163,55.636 84.5,53.711 80.837,55.636 81.537,51.558   78.574,48.669 82.669,48.074 "/><text x="0" y="115" fill="#000000" font-size="5px" font-weight="bold" font-family="'Helvetica Neue', Helvetica, Arial-Unicode, Arial, Sans-serif">Created by Lance B</text><text x="0" y="120" fill="#000000" font-size="5px" font-weight="bold" font-family="'Helvetica Neue', Helvetica, Arial-Unicode, Arial, Sans-serif">from the Noun Project</text></svg>