<svg xmlns="http://www.w3.org/2000/svg" xmlns:xlink="http://www.w3.org/1999/xlink" version="1.1" x="0px" y="0px" viewBox="0 0 100 125" enable-background="new 0 0 100 100" xml:space="preserve"><polygon points="15.5,44.364 17.331,48.074 21.426,48.669 18.463,51.558 19.163,55.636 15.5,53.711 11.837,55.636 12.537,51.558   9.574,48.669 13.669,48.074 "/><polygon points="67.25,44.364 69.081,48.074 73.176,48.669 70.213,51.558 70.913,55.636 67.25,53.711 63.587,55.636 64.287,51.558   61.324,48.669 65.419,48.074 "/><polygon points="50,44.364 51.831,48.074 55.926,48.669 52.963,51.558 53.663,55.636 50,53.711 46.337,55.636 47.037,51.558   44.074,48.669 48.169,48.074 "/><polygon points="32.75,44.364 34.581,48.074 38.676,48.669 35.713,51.558 36.413,55.636 32.75,53.711 29.087,55.636 29.787,51.558   26.824,48.669 30.919,48.074 "/><polygon points="84.5,44.364 86.331,48.074 90.426,48.669 87.463,51.558 88.163,55.636 84.5,53.711 80.837,55.636 81.537,51.558   78.574,48.669 82.669,48.074 "/><text x="0" y="115" fill="#000000" font-size="5px" font-weight="bold" font-family="'Helvetica Neue', Helvetica, Arial-Unicode, Arial, Sans-serif">Created by Lance B</text><text x="0" y="120" fill="#000000" font-size="5px" font-weight="bold" font-family="'Helvetica Neue', Helvetica, Arial-Unicode, Arial, Sans-serif">from the Noun Project</text></svg>